<?xml version="1.0" standalone="no"?>
<!DOCTYPE svg PUBLIC "-//W3C//DTD SVG 20010904//EN"
 "http://www.w3.org/TR/2001/REC-SVG-20010904/DTD/svg10.dtd">
<svg version="1.0" xmlns="http://www.w3.org/2000/svg"
 width="512.000000pt" height="512.000000pt" viewBox="0 0 512.000000 512.000000"
 preserveAspectRatio="xMidYMid meet">
<metadata>
Created by potrace 1.16, written by Peter Selinger 2001-2019
</metadata>
<g transform="translate(0.000000,512.000000) scale(0.100000,-0.100000)"
fill="#fff" stroke="none">
<path d="M2230 4869 c-403 -42 -746 -184 -1020 -424 -41 -36 -113 -97 -160
-137 -107 -90 -275 -259 -318 -321 -43 -61 -35 -61 12 1 93 119 311 319 531
487 123 94 175 126 323 199 250 125 478 175 892 195 l165 8 -170 0 c-93 0
-208 -4 -255 -8z"/>
<path d="M2718 4863 c18 -2 45 -2 60 0 15 2 0 4 -33 4 -33 0 -45 -2 -27 -4z"/>
<path d="M2838 4853 c12 -2 30 -2 40 0 9 3 -1 5 -23 4 -22 0 -30 -2 -17 -4z"/>
<path d="M2923 4843 c9 -2 23 -2 30 0 6 3 -1 5 -18 5 -16 0 -22 -2 -12 -5z"/>
<path d="M2983 4833 c9 -2 23 -2 30 0 6 3 -1 5 -18 5 -16 0 -22 -2 -12 -5z"/>
<path d="M3038 4823 c6 -2 18 -2 25 0 6 3 1 5 -13 5 -14 0 -19 -2 -12 -5z"/>
<path d="M3100 4810 c14 -4 34 -8 45 -8 16 0 15 2 -5 8 -14 4 -34 8 -45 8 -16
0 -15 -2 5 -8z"/>
<path d="M3208 4783 c7 -3 16 -2 19 1 4 3 -2 6 -13 5 -11 0 -14 -3 -6 -6z"/>
<path d="M2050 4754 c-78 -11 -279 -55 -340 -75 -95 -31 -222 -80 -218 -85 2
-2 27 5 55 16 73 28 312 87 429 106 253 41 555 6 817 -96 98 -38 119 -38 47 0
-68 36 -216 85 -335 111 -89 20 -372 34 -455 23z"/>
<path d="M1985 4674 c-224 -30 -458 -109 -633 -213 -251 -150 -495 -365 -691
-609 -154 -192 -274 -482 -333 -807 -20 -105 -22 -154 -22 -390 0 -300 12
-416 66 -640 70 -292 214 -587 412 -840 119 -153 333 -346 525 -474 85 -57
140 -89 91 -54 -212 154 -325 250 -465 394 -347 357 -548 774 -596 1235 -7 69
-9 216 -7 385 6 311 19 401 90 614 111 333 310 613 543 764 51 34 96 61 99 61
3 0 -42 -42 -102 -93 -285 -248 -488 -583 -556 -917 -18 -92 -36 -264 -35
-334 1 -47 2 -45 10 24 42 369 173 687 408 995 64 84 222 246 311 319 41 33
109 95 151 136 286 283 701 437 1075 401 227 -22 382 -67 570 -162 65 -34 144
-72 174 -86 30 -13 44 -21 30 -18 -134 30 -495 44 -665 25 -80 -9 -275 -42
-330 -56 -11 -3 2 8 29 23 38 21 45 29 29 31 -34 5 -198 -35 -277 -68 -186
-78 -534 -356 -676 -542 -19 -23 -1 -9 38 33 98 105 418 318 610 406 241 110
339 132 642 140 233 6 399 -9 566 -52 104 -28 115 -32 93 -39 -73 -21 -105
-26 -137 -21 -20 3 15 -10 78 -30 63 -19 169 -62 235 -95 66 -33 109 -51 95
-40 -37 29 -197 106 -262 126 -68 21 -59 34 24 34 70 0 161 -32 273 -96 130
-75 179 -117 296 -257 312 -372 433 -669 446 -1092 6 -198 -4 -293 -52 -480
-99 -387 -287 -814 -467 -1064 -145 -201 -268 -340 -387 -438 -305 -249 -524
-353 -782 -370 -60 -4 -88 -2 -93 6 -13 21 36 49 99 56 238 26 431 108 635
270 62 49 118 84 162 101 114 43 143 104 98 203 -28 62 -26 74 25 114 72 55
149 163 242 334 48 89 55 127 8 46 -15 -26 -66 -105 -111 -175 -68 -102 -98
-138 -154 -183 -80 -64 -86 -83 -45 -150 29 -47 32 -96 8 -117 -10 -9 -52 -31
-93 -51 -41 -19 -112 -64 -157 -100 -198 -157 -368 -230 -606 -258 -97 -11
-167 -7 -167 12 0 17 86 65 195 108 128 51 181 81 390 222 284 191 404 300
505 460 38 60 105 144 161 203 104 109 149 179 248 387 116 243 170 432 178
624 3 77 1 144 -5 165 -9 30 -10 20 -11 -65 -2 -224 -68 -469 -199 -745 -66
-138 -137 -247 -212 -326 -39 -41 -103 -125 -144 -187 -90 -139 -132 -188
-221 -264 -111 -94 -178 -142 -365 -262 -212 -137 -285 -177 -417 -231 -101
-41 -101 -41 -150 -26 -26 8 -82 24 -123 36 -149 43 -272 119 -282 173 -4 22
-3 22 69 -14 188 -95 426 -119 611 -64 65 20 367 243 504 373 127 122 176 186
325 433 143 237 211 371 298 584 72 175 104 301 112 435 l6 105 43 33 c86 67
134 114 134 134 0 10 -36 71 -80 135 l-79 115 26 34 c14 19 27 34 30 34 16 0
115 -256 148 -380 22 -87 24 -91 25 -49 0 64 -35 252 -66 351 -22 68 -146 350
-162 368 -2 3 -1 -6 2 -20 7 -23 6 -22 -12 5 -11 17 -45 71 -76 121 -237 388
-536 602 -976 703 -341 78 -686 39 -975 -110 -96 -49 -295 -174 -295 -185 0
-6 4 -3 63 33 165 103 420 190 655 224 130 18 335 7 457 -25 128 -34 331 -134
446 -220 229 -173 429 -454 523 -736 61 -185 91 -447 67 -599 -35 -225 -156
-439 -354 -627 -210 -200 -451 -329 -724 -390 -82 -18 -268 -30 -276 -18 -2 5
34 9 82 10 75 1 249 29 239 39 -2 2 -46 -3 -98 -11 -52 -7 -128 -14 -167 -14
-84 0 -84 0 -163 109 -28 38 -56 72 -63 75 -6 3 2 4 18 1 158 -26 362 -11 525
40 211 67 365 165 584 373 185 177 191 184 217 259 126 366 -5 845 -307 1122
-143 131 -376 263 -559 316 -117 34 -256 55 -375 56 -91 1 -93 2 -55 13 96 30
22 83 -99 71 -90 -9 -461 -115 -577 -165 -112 -48 -389 -214 -377 -226 2 -2
32 1 67 7 40 6 99 28 159 58 54 27 114 56 134 64 l38 16 -65 -80 c-56 -69
-115 -164 -115 -185 0 -4 13 11 29 32 51 68 74 91 145 144 128 95 299 166 456
189 127 18 430 18 430 0 0 -5 11 -7 25 -3 16 4 25 2 25 -6 0 -8 10 -10 33 -5
19 4 27 3 19 -3 -8 -5 6 -14 45 -26 32 -10 101 -38 153 -63 83 -40 107 -58
191 -142 103 -104 156 -190 205 -334 95 -279 63 -629 -79 -872 -151 -258 -458
-442 -769 -461 -199 -13 -409 27 -530 100 -32 19 -58 33 -58 31 0 -14 109 -74
211 -116 200 -82 252 -94 419 -93 155 0 186 5 308 56 81 34 94 48 16 19 -27
-10 -65 -21 -84 -25 -22 -3 -15 1 20 13 30 9 102 42 160 71 92 47 118 67 210
159 84 84 115 123 148 187 79 154 132 356 132 505 0 39 4 69 10 69 13 0 13
-70 -1 -204 -6 -59 -8 -110 -6 -113 3 -2 15 21 26 52 28 74 37 231 22 350 -47
362 -206 605 -485 740 -106 52 -108 61 -3 12 100 -46 296 -177 357 -238 28
-28 49 -53 46 -56 -2 -3 11 -25 30 -50 80 -105 145 -241 186 -391 19 -66 22
-104 22 -272 0 -225 -13 -293 -85 -439 -133 -271 -593 -525 -989 -548 -128 -7
-237 12 -354 62 -44 19 -81 33 -83 31 -5 -4 148 -74 180 -82 15 -3 27 -10 27
-14 0 -5 31 -50 69 -102 82 -110 79 -118 -36 -93 -87 20 -295 90 -288 97 3 3
-3 11 -12 19 -16 13 -17 12 -4 -3 19 -25 -2 -22 -25 3 -10 12 -59 49 -109 83
-182 124 -365 335 -451 521 -54 117 -67 194 -61 360 3 77 9 151 12 165 5 21 5
22 -5 8 -6 -10 -19 -70 -29 -135 l-19 -118 -2 105 c-2 91 -4 98 -10 55 -21
-133 -4 -303 41 -419 69 -176 249 -397 439 -540 229 -171 450 -255 702 -264
167 -6 293 13 459 68 239 79 398 178 584 365 114 113 151 159 242 301 11 16
11 15 3 -8 -54 -158 -241 -372 -439 -502 -231 -152 -446 -225 -736 -251 -90
-8 -235 9 -355 41 -350 94 -728 402 -880 719 -94 196 -113 398 -54 603 8 29
19 50 24 47 5 -3 7 0 4 8 -3 8 11 46 30 85 90 178 231 285 453 342 24 6 63 29
90 52 27 23 73 53 103 67 50 24 66 26 180 26 140 0 164 -8 233 -74 52 -48 77
-100 77 -156 0 -66 -22 -101 -83 -131 -28 -14 -63 -39 -75 -55 -31 -38 -80
-62 -172 -84 -41 -9 -128 -33 -193 -51 -66 -19 -137 -34 -160 -34 -58 0 -147
30 -164 57 -36 54 -4 83 162 148 70 27 98 45 130 79 47 52 78 62 220 71 86 6
103 4 114 -9 12 -14 9 -18 -24 -32 -20 -8 -78 -19 -129 -23 -75 -6 -99 -13
-133 -35 -23 -15 -44 -38 -47 -50 -3 -13 -33 -44 -66 -70 -33 -26 -60 -51 -60
-56 0 -5 -8 -14 -19 -19 -15 -9 -18 -7 -17 7 1 13 -6 16 -33 14 -36 -3 -61
-17 -61 -34 0 -6 18 -8 39 -6 22 2 37 0 35 -4 -16 -26 204 4 261 35 19 10 19
11 -5 18 -14 4 -49 4 -77 2 -36 -4 -53 -2 -53 5 0 18 36 23 148 20 l103 -3 32
36 c18 19 41 48 52 63 15 20 35 31 77 41 110 25 157 75 145 152 -9 55 -35 84
-110 122 -59 30 -75 33 -143 33 -42 -1 -102 -9 -133 -17 -59 -17 -162 -76
-143 -83 6 -2 71 17 146 42 137 47 170 53 195 37 23 -15 6 -37 -43 -57 -25
-11 -46 -23 -46 -28 0 -11 91 -1 159 18 66 19 86 10 101 -44 21 -77 -36 -140
-126 -140 -35 0 -36 1 -21 18 23 26 21 39 -9 58 -21 14 -42 16 -127 11 -122
-7 -174 -24 -247 -81 -30 -23 -86 -59 -125 -80 l-70 -38 43 41 c23 22 51 61
61 85 11 24 36 56 57 72 35 27 44 29 133 29 66 1 103 5 119 15 31 20 28 32 -5
19 -17 -6 -55 -8 -95 -4 -77 8 -152 -11 -186 -48 -11 -12 -30 -47 -42 -78 -17
-48 -30 -63 -82 -100 -85 -61 -98 -77 -98 -118 0 -49 33 -99 78 -118 53 -22
156 -12 272 28 86 29 110 33 255 38 185 7 224 20 295 97 32 35 40 40 35 22
-15 -52 -61 -103 -119 -131 -51 -26 -73 -30 -199 -38 -157 -10 -222 -25 -317
-75 -119 -62 -170 -129 -170 -222 0 -183 238 -327 515 -309 77 5 205 35 268
62 12 5 17 3 17 -9 0 -14 5 -14 41 4 74 38 144 88 191 137 90 92 173 272 213
458 63 296 -68 605 -330 781 -76 51 -100 63 -55 28 153 -121 264 -313 304
-523 18 -93 21 -276 6 -315 -7 -21 -6 -26 5 -26 8 0 15 -7 15 -15 0 -32 -75
-201 -101 -227 -51 -51 -90 -27 -41 25 16 18 37 46 46 62 9 17 26 42 38 57 17
22 20 32 11 51 -7 15 -8 42 -1 82 13 78 4 253 -17 335 -20 77 -93 233 -130
275 -18 21 -23 24 -16 8 19 -39 12 -36 -35 14 l-45 48 43 -55 c95 -121 142
-268 143 -445 0 -106 -3 -130 -29 -207 -31 -97 -102 -221 -129 -226 -10 -2
-17 3 -17 13 0 10 -29 -9 -82 -55 -149 -129 -323 -197 -474 -187 -122 9 -183
39 -211 105 -21 50 1 79 64 87 185 23 293 68 378 155 28 28 82 73 121 100 117
80 160 164 152 297 -6 96 -41 165 -118 236 -89 82 -146 102 -295 102 -131 0
-188 -14 -281 -66 -28 -16 -59 -29 -68 -29 -16 0 -16 2 1 31 51 87 184 171
303 190 115 18 254 -16 360 -89 66 -46 192 -188 227 -257 34 -66 42 -184 19
-274 -20 -78 -13 -93 9 -19 25 84 29 164 12 255 -24 125 -66 204 -156 293
-162 160 -369 208 -587 135 -133 -45 -205 -95 -357 -247 -76 -76 -142 -138
-147 -138 -17 0 -11 16 19 44 25 24 29 35 33 105 3 44 12 91 22 111 l17 35
-39 -39 c-59 -57 -92 -123 -99 -202 -5 -53 -13 -75 -39 -113 -155 -215 -204
-357 -204 -584 0 -114 27 -264 67 -365 16 -42 27 -91 29 -132 10 -249 106
-437 351 -686 336 -340 525 -448 773 -438 66 2 69 2 30 -6 -119 -23 -296 -2
-374 44 -100 59 -518 440 -604 551 l-32 40 16 -55 c37 -127 90 -198 252 -332
89 -75 277 -196 288 -185 3 2 30 -10 61 -29 128 -77 305 -100 522 -68 267 39
496 128 673 262 40 30 66 47 57 36 -146 -178 -305 -313 -529 -450 -202 -123
-286 -146 -451 -125 -102 12 -205 37 -302 73 -42 15 -62 29 -73 49 -8 16 -16
29 -17 29 -1 0 0 -46 3 -102 4 -69 12 -114 23 -135 27 -51 20 -56 -29 -21 -55
39 -137 127 -205 221 -50 69 -53 81 -9 47 49 -39 41 -19 -14 31 -30 27 -75 78
-100 113 -24 34 -76 88 -115 120 -205 168 -358 408 -484 757 -101 277 -148
531 -145 779 l1 165 8 -180 c7 -187 18 -255 69 -430 77 -265 152 -447 264
-649 171 -303 321 -474 521 -591 l30 -17 -30 23 c-196 154 -269 231 -397 424
-185 276 -330 665 -383 1026 -21 146 -20 159 8 159 12 0 36 -9 54 -20 55 -33
81 -85 113 -226 16 -71 41 -165 55 -209 31 -95 154 -348 190 -390 17 -20 13
-9 -14 35 -119 202 -188 393 -228 635 -14 88 -18 161 -16 368 1 251 2 259 23
282 20 22 71 170 69 204 0 9 -13 -26 -29 -78 -34 -110 -55 -141 -48 -69 7 60
107 246 185 343 31 39 43 59 28 45 -86 -77 -221 -303 -232 -391 -4 -24 -21
-71 -40 -105 -31 -56 -33 -67 -31 -140 l3 -79 -51 -83 -52 -83 -7 113 c-14
224 29 457 114 626 17 34 29 62 27 62 -3 0 -20 -26 -39 -57 -95 -164 -169
-412 -188 -636 -11 -133 -10 -156 18 -514 3 -35 9 -63 13 -63 4 0 5 -11 3 -24
-3 -14 2 -61 11 -104 20 -98 74 -274 76 -247 1 15 3 16 7 5 3 -8 59 -112 123
-230 65 -118 125 -228 134 -245 9 -16 31 -64 51 -106 91 -199 227 -334 366
-363 18 -4 53 -38 108 -107 45 -55 80 -103 77 -106 -12 -12 -126 19 -201 56
-266 128 -511 402 -557 624 -14 69 -32 77 -22 10 14 -100 69 -208 183 -360
126 -168 267 -293 441 -391 73 -41 236 -99 302 -108 29 -4 85 -19 123 -34 108
-43 310 -90 412 -97 73 -5 96 -10 110 -25 13 -15 14 -21 4 -27 -23 -14 -217
-20 -348 -10 -390 29 -672 128 -992 346 -52 35 -88 56 -81 48 20 -24 206 -146
301 -198 184 -100 415 -179 635 -218 153 -27 432 -32 579 -11 135 20 312 68
385 105 36 17 72 31 80 30 25 -3 169 36 270 74 290 108 566 289 805 528 102
102 236 262 294 351 17 27 22 36 9 20 -106 -135 -151 -188 -236 -277 -279
-294 -569 -485 -927 -609 -82 -29 -163 -59 -178 -67 -48 -24 -41 -8 13 32 29
21 110 101 180 177 364 392 663 910 851 1470 57 171 72 272 72 473 0 186 -15
297 -62 481 -90 343 -231 592 -491 868 -103 110 -34 61 91 -64 247 -246 420
-627 484 -1062 18 -119 24 -312 12 -413 -10 -93 9 -18 27 106 57 386 -46 824
-282 1199 -170 270 -459 511 -742 620 -19 7 -77 38 -128 68 -128 74 -349 175
-452 205 -241 72 -514 94 -755 61z m686 -420 c187 -32 397 -113 555 -216 180
-116 309 -246 468 -470 43 -61 47 -73 49 -129 l2 -62 78 -72 c42 -40 77 -79
77 -89 0 -24 -10 -20 -70 29 -30 25 -74 53 -98 62 -41 16 -46 22 -104 137
-114 227 -263 412 -452 558 -178 137 -338 206 -591 253 -40 8 -57 14 -39 14
17 1 73 -6 125 -15z m-486 -274 c-16 -5 -70 -16 -119 -25 -48 -9 -96 -19 -105
-22 -9 -4 -13 -2 -9 2 14 15 172 54 218 53 42 0 43 -1 15 -8z m-426 -64 c-2
-2 -40 -19 -84 -36 -44 -17 -136 -60 -205 -95 -69 -35 -138 -67 -155 -71 -49
-10 242 136 340 172 85 31 114 39 104 30z m878 -22 c-3 -3 -12 -4 -19 -1 -8 3
-5 6 6 6 11 1 17 -2 13 -5z m-629 -208 c-110 -37 -159 -66 -239 -143 -51 -48
-117 -83 -157 -83 -47 0 206 190 306 229 58 23 83 28 142 29 42 1 39 -1 -52
-32z m708 -261 c73 -158 86 -320 40 -498 -31 -119 -74 -203 -146 -281 -114
-123 -273 -191 -490 -209 -79 -7 -40 6 68 22 107 16 224 58 295 105 184 124
311 425 278 656 -14 93 -49 200 -85 263 -14 24 -26 48 -26 53 0 16 32 -37 66
-111z m-1126 -45 c15 -27 5 -40 -30 -40 -39 0 -48 19 -20 42 28 23 37 23 50
-2z m2175 -120 c28 -16 66 -43 85 -60 l35 -31 -33 -30 c-22 -20 -43 -29 -66
-29 -32 0 -33 1 -53 73 -11 39 -24 80 -28 90 -10 24 2 21 60 -13z m-1734 -50
c5 0 9 -10 9 -22 0 -21 0 -21 -14 -3 -14 19 -15 19 -35 1 -12 -11 -21 -26 -21
-35 0 -11 -3 -12 -11 -4 -27 27 11 78 49 67 8 -2 18 -4 23 -4z m59 -39 c0 -43
-41 -81 -87 -81 -21 0 -44 4 -52 9 -8 5 3 7 31 4 40 -5 47 -2 67 23 12 15 24
38 27 51 8 31 14 29 14 -6z m-1049 -197 c-6 -66 -11 -177 -11 -248 l0 -128
-40 36 c-22 20 -47 36 -54 36 -30 0 -27 23 13 88 57 95 66 125 52 174 -9 30
-9 48 0 76 13 41 41 93 46 88 2 -2 -1 -57 -6 -122z m2855 24 c105 -141 107
-145 90 -169 -14 -21 -136 -119 -147 -119 -4 0 -10 12 -15 28 -6 19 -10 -12
-15 -103 -16 -303 -99 -496 -297 -694 -48 -48 -71 -69 -51 -47 252 281 329
479 329 845 0 147 -10 273 -26 323 -5 16 9 24 47 27 9 1 45 -38 85 -91z
m-3069 -75 c-3 -10 -5 -2 -5 17 0 19 2 27 5 18 2 -10 2 -26 0 -35z m831 15
c19 -19 14 -30 -8 -18 -11 6 -20 15 -20 20 0 14 14 12 28 -2z m490 -57 c-7
-21 -136 -116 -193 -143 -86 -40 -195 -37 -195 7 0 19 78 72 150 101 78 31
246 56 238 35z m452 -331 c-19 -16 -30 -32 -26 -38 10 -16 -2 -34 -52 -76 -47
-39 -76 -46 -86 -20 -4 10 4 21 25 32 43 23 81 53 75 59 -2 2 -30 -7 -62 -22
-31 -14 -71 -28 -88 -31 -22 -4 -15 2 24 18 30 14 91 47 135 74 81 51 115 53
55 4z m90 0 c-22 -31 -70 -73 -77 -66 -4 3 87 95 95 96 2 0 -6 -13 -18 -30z
m-677 -107 c-7 -2 -19 -2 -25 0 -7 3 -2 5 12 5 14 0 19 -2 13 -5z m237 -32 c0
-4 -28 -11 -61 -15 -100 -10 -121 -5 -34 9 44 7 83 13 88 14 4 0 7 -3 7 -8z
m-1305 -547 c25 -53 43 -99 41 -101 -2 -2 -27 41 -55 96 -35 69 -59 132 -76
205 -35 147 -30 153 10 14 19 -64 54 -160 80 -214z m566 45 c199 -196 413
-324 660 -394 127 -37 361 -46 523 -20 327 51 600 181 824 391 l94 88 -41 -83
c-52 -103 -160 -286 -219 -371 -67 -97 -127 -156 -224 -220 -192 -128 -441
-187 -674 -161 -277 31 -522 156 -729 372 -76 79 -252 293 -287 350 -24 38
-65 139 -72 179 l-7 35 32 -40 c18 -22 72 -79 120 -126z m619 71 c20 -6 21 -8
5 -8 -11 0 -29 3 -40 8 -25 11 1 11 35 0z m63 -17 c-7 -2 -19 -2 -25 0 -7 3
-2 5 12 5 14 0 19 -2 13 -5z m380 0 c-7 -2 -19 -2 -25 0 -7 3 -2 5 12 5 14 0
19 -2 13 -5z m-320 -10 c-7 -2 -19 -2 -25 0 -7 3 -2 5 12 5 14 0 19 -2 13 -5z
m265 0 c-10 -2 -26 -2 -35 0 -10 3 -2 5 17 5 19 0 27 -2 18 -5z m-121 -10
c-20 -2 -52 -2 -70 0 -17 2 0 4 38 4 39 0 53 -2 32 -4z m-657 -628 c36 -36 95
-89 133 -117 37 -27 67 -52 67 -55 0 -7 -119 78 -151 108 -16 15 -30 25 -32
23 -2 -2 -38 25 -81 62 -72 61 -136 135 -136 157 0 11 113 -89 200 -178z
m-374 -105 c91 -97 125 -160 87 -160 -53 0 -152 115 -199 228 -34 82 -29 91
18 36 24 -27 66 -74 94 -104z m699 -530 c44 -21 120 -50 169 -64 49 -14 91
-28 94 -31 3 -2 -6 -13 -19 -24 -28 -23 -65 -21 -189 11 -118 29 -171 76 -194
172 l-7 30 33 -28 c18 -15 69 -44 113 -66z m963 -152 c7 -7 12 -22 12 -35 0
-32 -93 -77 -233 -112 -174 -44 -167 -43 -207 -11 l-35 28 28 7 c15 4 47 3 70
-3 66 -17 135 -25 117 -13 -8 5 -36 13 -62 16 -26 4 -48 10 -48 14 0 3 30 15
68 24 37 10 108 35 157 57 99 42 115 46 133 28z"/>
<path d="M1425 1920 c14 -27 28 -50 30 -50 3 0 -6 23 -20 50 -14 28 -28 50
-30 50 -3 0 6 -22 20 -50z"/>
<path d="M1485 1810 c9 -16 18 -30 21 -30 2 0 -2 14 -11 30 -9 17 -18 30 -21
30 -2 0 2 -13 11 -30z"/>
<path d="M3030 1563 c-137 -57 -297 -93 -440 -101 -101 -5 -116 -8 -80 -13
128 -21 286 -3 415 45 67 26 195 92 195 101 0 3 -1 4 -2 4 -2 -1 -41 -17 -88
-36z"/>
<path d="M2438 1463 c7 -3 16 -2 19 1 4 3 -2 6 -13 5 -11 0 -14 -3 -6 -6z"/>
<path d="M3912 4533 c92 -69 262 -242 360 -365 82 -104 198 -288 213 -338 7
-22 6 -23 -9 -11 -33 27 -16 -13 54 -130 116 -193 184 -363 230 -574 51 -237
65 -543 35 -769 -16 -120 -14 -154 4 -54 26 154 34 269 28 443 -8 259 -44 445
-132 689 -24 67 -58 168 -75 225 -97 317 -358 656 -672 871 -103 72 -126 79
-36 13z"/>
<path d="M2500 4450 c-30 -5 -75 -18 -100 -29 -25 -12 -36 -19 -25 -16 66 16
180 25 325 26 124 0 158 3 135 11 -41 13 -267 19 -335 8z"/>
<path d="M3567 4274 c462 -269 745 -608 867 -1039 75 -265 94 -621 52 -945
-35 -263 -128 -507 -283 -745 -95 -146 -158 -221 -337 -402 -88 -90 -156 -163
-152 -163 22 0 204 151 289 240 233 243 370 457 505 790 105 261 152 474 152
692 0 112 -26 313 -45 347 -14 24 -15 18 -8 -69 19 -227 -2 -467 -57 -675 -27
-100 -88 -284 -75 -225 60 273 69 363 62 619 -9 369 -74 623 -229 894 -141
246 -384 490 -641 646 -80 48 -207 111 -224 111 -4 0 52 -34 124 -76z"/>
<path d="M2958 4253 c7 -3 16 -2 19 1 4 3 -2 6 -13 5 -11 0 -14 -3 -6 -6z"/>
<path d="M2295 4193 c-86 -8 -211 -35 -291 -65 -47 -16 -83 -32 -81 -34 2 -2
39 7 83 21 112 36 289 65 407 66 85 1 94 3 57 10 -46 8 -104 8 -175 2z"/>
<path d="M1290 3934 c-122 -81 -200 -147 -326 -276 -185 -190 -314 -373 -399
-568 -35 -78 -85 -216 -85 -229 0 -3 27 48 59 114 170 352 430 674 766 950 82
67 80 65 74 65 -2 0 -43 -25 -89 -56z"/>
<path d="M3531 3922 c100 -94 176 -188 243 -302 31 -52 56 -90 56 -84 0 13
-89 163 -126 211 -44 58 -144 161 -198 205 -31 24 -21 13 25 -30z"/>
<path d="M2133 3883 c15 -2 37 -2 50 0 12 2 0 4 -28 4 -27 0 -38 -2 -22 -4z"/>
<path d="M2262 3865 c78 -19 177 -66 254 -119 35 -25 64 -42 64 -37 0 11 -104
83 -167 115 -56 28 -153 57 -188 55 -11 0 6 -7 37 -14z"/>
<path d="M2970 3634 c0 -3 9 -19 21 -35 36 -51 109 -215 131 -295 18 -66 21
-108 22 -254 1 -202 -3 -225 -41 -235 -54 -13 -90 -52 -143 -157 -108 -213
-219 -347 -353 -428 -48 -29 -57 -38 -52 -55 4 -11 7 -28 6 -38 0 -22 16 -18
116 29 139 66 309 216 399 352 87 130 127 282 127 482 0 241 -47 396 -178 583
-36 51 -55 69 -55 51z"/>
<path d="M4462 3538 c11 -29 32 -91 45 -138 29 -104 83 -264 117 -345 58 -143
79 -486 42 -695 -79 -447 -318 -877 -682 -1230 -124 -120 -217 -193 -387 -304
-115 -74 -294 -235 -270 -243 19 -7 183 59 301 120 504 259 869 688 1047 1231
70 214 90 355 90 646 0 216 -3 259 -23 358 -28 138 -69 256 -134 387 -48 95
-152 265 -163 265 -2 0 5 -24 17 -52z m207 -1513 c-28 -93 -110 -287 -172
-405 -61 -116 -151 -263 -171 -279 -8 -7 8 25 36 71 76 126 229 440 278 571
24 65 45 116 46 114 2 -2 -6 -34 -17 -72z m-759 -1037 c-75 -70 -189 -160
-266 -210 -55 -35 -205 -110 -210 -105 -3 2 55 42 128 87 132 83 287 196 363
264 73 65 61 36 -15 -36z"/>
<path d="M3184 3571 c4 -5 21 -20 39 -32 l32 -23 -20 23 c-22 25 -62 51 -51
32z"/>
<path d="M3831 3515 c0 -5 6 -21 14 -35 8 -14 14 -20 14 -15 0 6 -6 21 -14 35
-8 14 -14 21 -14 15z"/>
<path d="M3290 3405 c56 -100 101 -211 135 -333 19 -67 24 -76 19 -39 -14 118
-71 268 -149 388 -25 38 -47 69 -49 69 -2 0 17 -38 44 -85z"/>
<path d="M1683 3073 c-24 -9 -13 -23 17 -23 20 0 30 5 30 15 0 15 -22 19 -47
8z"/>
<path d="M1436 2954 c-65 -71 -95 -134 -107 -224 -21 -156 6 -301 79 -430 131
-231 365 -457 589 -569 80 -40 204 -81 240 -80 15 0 24 2 18 4 -5 2 -48 15
-95 30 -108 34 -247 107 -342 178 -41 31 -122 105 -179 164 -199 207 -299 398
-299 572 0 50 7 76 35 136 20 41 40 75 45 75 14 0 13 -9 -10 -80 -24 -75 -25
-145 -5 -225 18 -67 54 -149 79 -180 10 -12 7 0 -7 30 -68 138 -87 296 -47
384 24 53 25 80 4 88 -24 9 -47 -9 -62 -48 l-13 -34 5 42 c3 31 19 64 60 123
61 86 65 102 12 44z"/>
<path d="M2627 2945 c-9 -19 -15 -35 -12 -35 7 0 37 61 33 66 -3 2 -12 -12
-21 -31z"/>
<path d="M1232 2860 c0 -14 2 -19 5 -12 2 6 2 18 0 25 -3 6 -5 1 -5 -13z"/>
<path d="M2819 2574 c-73 -89 -175 -170 -289 -229 -52 -26 -119 -68 -149 -93
-123 -100 -299 -143 -453 -111 -115 24 -237 101 -307 194 l-22 30 23 -45 c32
-62 152 -182 215 -214 128 -64 301 -73 443 -21 41 15 86 35 100 43 76 46 102
69 140 123 23 32 85 97 139 143 54 47 122 115 152 153 70 91 72 93 67 93 -2 0
-29 -30 -59 -66z"/>
<path d="M720 2528 c-44 -206 -39 -403 16 -643 48 -206 44 -255 -23 -255 -28
0 -43 8 -71 38 -81 85 -173 351 -202 582 l-9 75 4 -86 c9 -173 52 -342 121
-486 75 -153 174 -224 230 -162 20 22 25 84 11 129 -7 23 -7 23 5 5 7 -11 43
-101 80 -200 79 -211 89 -218 19 -13 -93 267 -146 502 -166 727 l-13 146 -2
-160 -3 -160 -8 105 c-9 107 1 265 21 355 6 26 9 50 6 52 -2 2 -9 -20 -16 -49z
m7 -525 c-3 -10 -5 -2 -5 17 0 19 2 27 5 18 2 -10 2 -26 0 -35z m10 -65 c-3
-7 -5 -2 -5 12 0 14 2 19 5 13 2 -7 2 -19 0 -25z m10 -50 c-3 -8 -6 -5 -6 6
-1 11 2 17 5 13 3 -3 4 -12 1 -19z m10 -40 c-3 -8 -6 -5 -6 6 -1 11 2 17 5 13
3 -3 4 -12 1 -19z"/>
<path d="M423 2390 c0 -36 2 -50 4 -32 2 17 2 47 0 65 -2 17 -4 3 -4 -33z"/>
<path d="M442 2040 c0 -14 2 -19 5 -12 2 6 2 18 0 25 -3 6 -5 1 -5 -13z"/>
<path d="M452 1990 c0 -14 2 -19 5 -12 2 6 2 18 0 25 -3 6 -5 1 -5 -13z"/>
<path d="M461 1939 c0 -13 4 -33 9 -44 7 -14 8 -8 3 20 -7 46 -13 59 -12 24z"/>
<path d="M481 1854 c0 -11 3 -14 6 -6 3 7 2 16 -1 19 -3 4 -6 -2 -5 -13z"/>
<path d="M500 1791 c0 -21 68 -176 113 -256 48 -85 152 -239 174 -257 9 -7 -7
20 -36 61 -99 139 -179 282 -227 406 -13 33 -23 54 -24 46z"/>
<path d="M810 1246 c0 -2 8 -10 18 -17 15 -13 16 -12 3 4 -13 16 -21 21 -21
13z"/>
<path d="M1100 766 c0 -2 8 -10 18 -17 15 -13 16 -12 3 4 -13 16 -21 21 -21
13z"/>
<path d="M1435 622 c18 -19 159 -90 250 -127 144 -58 270 -85 428 -92 89 -4
137 -2 137 4 0 6 -48 13 -112 17 -235 14 -457 72 -628 163 -47 25 -80 40 -75
35z"/>
</g>
</svg>